HIERARCHY
ROOT Hips
{
	OFFSET 0.000000 89.005402 0.000000
	CHANNELS 6 Xposition Yposition Zposition Xrotation Yrotation Zrotation
	JOINT Spine
	{
		OFFSET 0.116900 10.681000 0.373400
		CHANNELS 3 Xrotation Yrotation Zrotation
		JOINT Spine1
		{
			OFFSET 0.000000 13.840401 0.053500
			CHANNELS 3 Xrotation Yrotation Zrotation
			JOINT Spine2
			{
				OFFSET 0.000000 14.712700 -0.366200
				CHANNELS 3 Xrotation Yrotation Zrotation
				JOINT Neck
				{
					OFFSET 0.000000 35.415497 -3.314200
					CHANNELS 3 Xrotation Yrotation Zrotation
					JOINT Head
					{
						OFFSET 0.000000 16.899200 1.218300
						CHANNELS 3 Xrotation Yrotation Zrotation
						JOINT HeadTop_End
						{
							OFFSET 0.000000 22.206207 2.192500
							CHANNELS 3 Xrotation Yrotation Zrotation
							End Site
							{
								OFFSET 0.000000 22.314178 0.000000
							}
						}
					}
				}
				JOINT LeftShoulder
				{
					OFFSET 12.896400 26.716293 -4.548400
					CHANNELS 3 Xrotation Yrotation Zrotation
					JOINT LeftArm
					{
						OFFSET 19.027000 -4.857010 -1.718400
						CHANNELS 3 Xrotation Yrotation Zrotation
						JOINT LeftForeArm
						{
							OFFSET 24.179897 0.000000 0.000000
							CHANNELS 3 Xrotation Yrotation Zrotation
							JOINT LeftHand
							{
								OFFSET 27.156403 0.000000 0.000000
								CHANNELS 3 Xrotation Yrotation Zrotation
								JOINT LeftHandIndex1
								{
									OFFSET 16.441200 0.000000 0.000000
									CHANNELS 3 Xrotation Yrotation Zrotation
									JOINT LeftHandIndex2
									{
										OFFSET 4.821899 0.000000 0.000000
										CHANNELS 3 Xrotation Yrotation Zrotation
										JOINT LeftHandIndex3
										{
											OFFSET 6.386497 0.000000 0.000000
											CHANNELS 3 Xrotation Yrotation Zrotation
											JOINT LeftHandIndex4
											{
												OFFSET 5.188988 0.000000 0.000000
												CHANNELS 3 Xrotation Yrotation Zrotation
												End Site
												{
													OFFSET -0.178703 5.185913 0.000177
												}
											}
										}
									}
								}
								JOINT LeftHandThumb1
								{
									OFFSET 6.534897 -5.032593 5.900300
									CHANNELS 3 Xrotation Yrotation Zrotation
									JOINT LeftHandThumb2
									{
										OFFSET 3.818176 -2.204422 2.204423
										CHANNELS 3 Xrotation Yrotation Zrotation
										JOINT LeftHandThumb3
										{
											OFFSET 3.252098 -1.877594 1.877601
											CHANNELS 3 Xrotation Yrotation Zrotation
											JOINT LeftHandThumb4
											{
												OFFSET 5.251778 -3.032120 3.032117
												CHANNELS 3 Xrotation Yrotation Zrotation
												End Site
												{
													OFFSET 0.000023 6.780014 0.000000
												}
											}
										}
									}
								}
							}
						}
					}
				}
				JOINT RightShoulder
				{
					OFFSET -12.896300 26.716293 -4.548400
					CHANNELS 3 Xrotation Yrotation Zrotation
					JOINT RightArm
					{
						OFFSET -19.027000 -4.857010 -1.718400
						CHANNELS 3 Xrotation Yrotation Zrotation
						JOINT RightForeArm
						{
							OFFSET -24.179897 0.000000 0.000000
							CHANNELS 3 Xrotation Yrotation Zrotation
							JOINT RightHand
							{
								OFFSET -27.156403 0.000000 0.000000
								CHANNELS 3 Xrotation Yrotation Zrotation
								JOINT RightHandThumb1
								{
									OFFSET -6.591202 -4.852203 5.988100
									CHANNELS 3 Xrotation Yrotation Zrotation
									JOINT RightHandThumb2
									{
										OFFSET -3.818176 -2.204422 2.204423
										CHANNELS 3 Xrotation Yrotation Zrotation
										JOINT RightHandThumb3
										{
											OFFSET -3.252098 -1.877594 1.877601
											CHANNELS 3 Xrotation Yrotation Zrotation
											JOINT RightHandThumb4
											{
												OFFSET -5.251778 -3.032120 3.032117
												CHANNELS 3 Xrotation Yrotation Zrotation
												End Site
												{
													OFFSET -0.000023 6.780014 0.000000
												}
											}
										}
									}
								}
								JOINT RightHandIndex1
								{
									OFFSET -16.029404 0.000000 0.000000
									CHANNELS 3 Xrotation Yrotation Zrotation
									JOINT RightHandIndex2
									{
										OFFSET -5.213303 0.000000 0.000000
										CHANNELS 3 Xrotation Yrotation Zrotation
										JOINT RightHandIndex3
										{
											OFFSET -6.386528 0.000000 0.000000
											CHANNELS 3 Xrotation Yrotation Zrotation
											JOINT RightHandIndex4
											{
												OFFSET -5.189026 0.000000 0.000000
												CHANNELS 3 Xrotation Yrotation Zrotation
												End Site
												{
													OFFSET 0.236702 5.183624 0.001972
												}
											}
										}
									}
								}
							}
						}
					}
				}
			}
		}
	}
	JOINT LeftUpLeg
	{
		OFFSET 14.073000 -7.904099 -1.463000
		CHANNELS 3 Xrotation Yrotation Zrotation
		JOINT LeftLeg
		{
			OFFSET -0.109806 -34.073280 4.093200
			CHANNELS 3 Xrotation Yrotation Zrotation
			JOINT LeftFoot
			{
				OFFSET 0.109806 -29.899420 -6.319000
				CHANNELS 3 Xrotation Yrotation Zrotation
				JOINT LeftToeBase
				{
					OFFSET 1.551100 -14.988700 20.535801
					CHANNELS 3 Xrotation Yrotation Zrotation
					JOINT LeftToe_End
					{
						OFFSET 0.221200 0.570800 13.248301
						CHANNELS 3 Xrotation Yrotation Zrotation
						End Site
						{
							OFFSET 0.000000 13.262435 0.000000
						}
					}
				}
			}
		}
	}
	JOINT RightUpLeg
	{
		OFFSET -13.839300 -7.904099 -1.463000
		CHANNELS 3 Xrotation Yrotation Zrotation
		JOINT RightLeg
		{
			OFFSET 0.109694 -34.073219 4.093300
			CHANNELS 3 Xrotation Yrotation Zrotation
			JOINT RightFoot
			{
				OFFSET -0.109694 -29.899384 -6.319200
				CHANNELS 3 Xrotation Yrotation Zrotation
				JOINT RightToeBase
				{
					OFFSET -1.551100 -14.988700 20.535801
					CHANNELS 3 Xrotation Yrotation Zrotation
					JOINT RightToe_End
					{
						OFFSET -0.221200 0.570900 13.248299
						CHANNELS 3 Xrotation Yrotation Zrotation
						End Site
						{
							OFFSET 0.000000 13.262440 0.000000
						}
					}
				}
			}
		}
	}
}
MOTION
Frames: 7
Frame Time: 0.033333
1.203694 85.913651 1.331067 -0.893583 1.574574 -4.815798 1.286618 -1.206624 2.473440 0.728744 0.264195 5.944686 0.710789 0.781493 5.851998 1.045308 -0.304693 -2.163987 1.584932 0.544179 -8.140494 -0.000000 -0.000000 -0.000000 3.582359 -13.764041 -5.044455 4.032789 3.514247 -83.678335 0.000001 -14.506741 0.000042 -27.592513 3.698842 -9.416234 0.339561 4.671348 -7.844261 0.387036 2.823587 -20.566239 0.034628 0.816831 -10.169807 0.000001 0.000000 -0.000002 18.491270 -0.461423 10.916057 1.284044 32.757604 -3.088957 2.117137 9.311168 -0.358612 -0.000000 0.000001 -0.000000 4.508128 3.324373 5.471579 -1.219618 0.655867 67.345412 -0.000001 17.736799 -0.000000 -11.193154 -9.123240 10.139299 18.491276 0.461426 -10.916072 1.284048 -32.757598 3.088961 2.008710 -8.430474 1.114734 -0.000000 -0.000000 0.000002 0.339565 -4.671355 7.844292 0.387030 -2.823580 20.566237 -0.193125 -0.216347 13.843952 0.000000 -0.000000 0.000003 -17.831698 11.031404 16.761913 23.660035 8.786538 2.279145 -4.177248 4.012802 -10.862423 -0.441964 -0.000002 -0.000003 0.000000 -0.000000 0.000000 2.387826 -4.084156 10.975311 8.065054 -5.303930 3.191450 -9.628418 1.084338 -8.313398 -0.548656 -0.000004 -0.000000 -0.000000 -0.000000 -0.000000 
1.207332 85.910278 1.363909 -0.940461 1.944248 -4.830098 1.327634 -1.155128 2.489584 0.744515 0.286978 5.947057 0.726984 0.804071 5.854532 1.082368 -0.317793 -2.198111 1.714615 0.474828 -8.129318 0.000000 0.000000 -0.000000 3.503763 -13.816306 -5.099036 3.948667 3.471084 -83.591455 0.000003 -14.753202 0.000008 -27.393597 3.739604 -9.524123 0.339558 4.671281 -7.843554 0.386951 2.823364 -20.563917 0.034604 0.816683 -10.168287 0.000001 0.000001 -0.000005 18.510975 -0.732606 10.962727 1.309976 32.665007 -3.133959 2.132033 9.241609 -0.387090 -0.000000 -0.000001 0.000001 4.502106 3.340740 5.412152 -1.249422 0.223648 67.271708 0.000004 17.815128 0.000003 -10.696876 -9.178458 10.243370 18.491274 0.461426 -10.916052 1.284035 -32.757601 3.088937 2.008700 -8.430465 1.114725 0.000000 -0.000002 -0.000000 0.341702 -4.686676 7.997106 0.392474 -2.838013 20.719126 -0.192529 -0.232286 13.996532 0.000000 -0.000000 0.000001 -17.906268 11.032767 16.721384 23.684741 8.438476 2.329796 -4.169373 3.989983 -10.778683 -0.484667 0.000010 0.000001 0.000000 0.000002 0.000000 2.577997 -4.123932 11.030131 7.950574 -5.569045 3.162536 -9.683461 1.046750 -8.258753 -0.548323 0.000000 0.000002 0.000000 0.000000 0.000000 
1.213953 85.904572 1.398661 -0.964152 2.302793 -4.837980 1.362805 -1.081156 2.516919 0.753502 0.320024 5.952246 0.736537 0.836986 5.859928 1.105507 -0.328146 -2.237341 1.805839 0.429649 -8.128699 -0.000001 0.000000 0.000000 3.324352 -13.793876 -5.173872 3.768620 3.403895 -83.399683 0.000004 -15.286366 0.000003 -26.927445 3.862229 -9.674328 0.339541 4.671220 -7.843034 0.386891 2.823207 -20.562255 0.034592 0.816569 -10.167172 -0.000000 -0.000001 0.000001 18.558799 -1.398515 11.081398 1.374461 32.438218 -3.244230 2.168883 9.070330 -0.456931 -0.000000 -0.000001 -0.000000 4.496990 3.359752 5.375909 -1.124122 -0.355549 67.147282 0.000004 18.378096 -0.000001 -9.865343 -9.083327 10.722174 18.491281 0.461415 -10.916082 1.284051 -32.757608 3.088958 2.008707 -8.430466 1.114727 -0.000001 -0.000001 -0.000001 0.347102 -4.724136 8.370755 0.405950 -2.873245 21.093057 -0.190888 -0.271249 14.369654 0.000000 0.000000 0.000001 -17.997895 11.026157 16.665761 23.712639 8.109777 2.386215 -4.163415 3.970471 -10.700186 -0.530320 -0.000005 0.000002 0.000000 -0.000000 0.000000 2.715882 -4.124107 11.088281 7.871373 -5.873967 3.101754 -9.753389 1.008559 -8.177480 -0.531948 0.000001 -0.000001 0.000000 0.000000 -0.000000 
1.225072 85.899529 1.439695 -0.998647 2.673111 -4.850061 1.388933 -0.990364 2.545974 0.757186 0.361213 5.960884 0.740885 0.878281 5.868770 1.137061 -0.340150 -2.265069 1.879691 0.413692 -8.146051 -0.000001 0.000000 0.000000 3.034639 -13.740544 -5.212248 3.522616 3.357695 -83.138067 -0.000000 -16.133477 -0.000018 -26.198236 4.057380 -9.874185 0.339583 4.671477 -7.845525 0.387170 2.823958 -20.570248 0.034666 0.817112 -10.172516 0.000000 -0.000001 -0.000001 18.636943 -2.481283 11.283293 1.481366 32.070972 -3.423265 2.229451 8.790494 -0.570558 -0.000000 -0.000002 -0.000000 4.490445 3.403247 5.381377 -0.889131 -1.100229 66.978515 -0.000004 19.361997 0.000021 -8.773395 -8.862223 11.487779 18.491284 0.461414 -10.916098 1.284045 -32.757611 3.088962 2.008703 -8.430478 1.114713 0.000000 0.000003 0.000001 0.356408 -4.784973 8.978512 0.428355 -2.930353 21.701212 -0.187681 -0.334593 14.976467 -0.000000 -0.000001 -0.000002 -18.074550 11.007020 16.597991 23.744734 7.785265 2.464449 -4.163793 3.954613 -10.633757 -0.566200 -0.000000 -0.000000 0.000000 -0.000000 -0.000000 2.886140 -4.137248 11.145026 7.770954 -6.169689 3.051955 -9.820652 0.969031 -8.099684 -0.514237 -0.000000 -0.000001 -0.000000 -0.000000 -0.000000 
1.238428 85.897949 1.487562 -1.041996 3.040213 -4.869539 1.403449 -0.892741 2.571474 0.755840 0.406088 5.972277 0.740225 0.923551 5.880319 1.185281 -0.354525 -2.273998 1.949579 0.426463 -8.176354 -0.000000 0.000000 -0.000000 2.639282 -13.683814 -5.193817 3.231732 3.336614 -82.802199 -0.000001 -17.274148 -0.000014 -25.208973 4.346939 -10.169622 0.339630 4.671826 -7.848951 0.387567 2.825011 -20.581382 0.034772 0.817848 -10.179895 0.000000 0.000001 0.000000 18.737808 -3.957616 11.568557 1.625126 31.567413 -3.664139 2.311659 8.407116 -0.724587 -0.000000 0.000000 0.000000 4.481834 3.474753 5.428095 -0.609754 -1.979730 66.795589 -0.000002 20.644336 0.000004 -7.544598 -8.513948 12.459975 18.491264 0.461444 -10.916069 1.284033 -32.757608 3.088932 2.008706 -8.430481 1.114714 0.000001 -0.000001 -0.000000 0.370026 -4.867105 9.801012 0.459639 -3.007244 22.524181 -0.182271 -0.420243 15.797568 -0.000000 -0.000000 0.000002 -18.128954 10.978028 16.527524 23.770240 7.477099 2.559636 -4.166606 3.941001 -10.583068 -0.598902 0.000002 -0.000003 -0.000000 -0.000000 -0.000000 3.098330 -4.158788 11.204956 7.620610 -6.443373 3.015401 -9.867053 0.928052 -8.032547 -0.493325 -0.000003 0.000001 -0.000000 -0.000000 0.000000 
1.250836 85.900208 1.541830 -1.092496 3.404564 -4.896372 1.410259 -0.793210 2.593308 0.751655 0.451706 5.982657 0.736751 0.969658 5.890834 1.238916 -0.371529 -2.270380 2.019560 0.443320 -8.199044 0.000000 0.000000 -0.000000 2.148616 -13.657362 -5.159267 2.891135 3.328423 -82.348627 -0.000001 -18.641907 -0.000004 -23.957107 4.740672 -10.605104 0.339558 4.671341 -7.843986 0.386999 2.823498 -20.565346 0.034619 0.816773 -10.169218 0.000001 0.000000 -0.000002 18.844022 -5.786281 11.928977 1.791544 30.931061 -3.953693 2.410467 7.930687 -0.912270 -0.000000 0.000000 0.000000 4.471391 3.562600 5.489544 -0.291359 -2.937758 66.628325 0.000001 22.156411 0.000000 -6.308338 -7.967811 13.579125 18.491252 0.461448 -10.916068 1.284037 -32.757591 3.088944 2.008706 -8.430498 1.114701 -0.000000 -0.000000 -0.000001 0.388137 -4.966458 10.798780 0.499067 -3.099892 23.522512 -0.174064 -0.524014 16.793543 -0.000000 -0.000000 0.000004 -18.165624 10.949813 16.465879 23.786716 7.172404 2.657917 -4.169921 3.926679 -10.539575 -0.633480 -0.000022 0.000000 0.000000 0.000002 0.000000 3.350531 -4.177638 11.276460 7.413962 -6.708253 2.980213 -9.888977 0.885584 -7.971564 -0.466742 -0.000007 -0.000000 -0.000000 -0.000001 -0.000000 
1.259916 85.902466 1.601933 -1.150581 3.780154 -4.924313 1.421579 -0.689636 2.610284 0.749672 0.498002 5.986701 0.735577 1.016222 5.895034 1.274138 -0.392329 -2.269349 2.088341 0.423725 -8.185212 -0.000000 -0.000000 0.000000 1.566754 -13.698459 -5.170713 2.474826 3.367396 -81.756709 -0.000000 -20.170676 -0.000012 -22.476628 5.192311 -11.172410 0.339360 4.669899 -7.829742 0.385366 2.819139 -20.519236 0.034182 0.813700 -10.138559 -0.000000 0.000000 0.000001 18.948821 -7.922397 12.367085 1.973799 30.174376 -4.281557 2.522810 7.371587 -1.127855 -0.000000 0.000003 0.000000 4.458727 3.656934 5.530703 0.138694 -3.923759 66.470622 -0.000003 23.916109 0.000013 -5.109422 -7.135990 14.852344 18.491286 0.461399 -10.916077 1.284060 -32.757621 3.088966 2.008691 -8.430459 1.114710 -0.000001 0.000001 -0.000001 0.411030 -5.079938 11.942231 0.546228 -3.205187 24.666607 -0.162447 -0.642708 17.934718 0.000000 -0.000001 -0.000002 -18.198161 10.935206 16.417526 23.806817 6.841361 2.745090 -4.178220 3.910314 -10.488697 -0.665331 -0.000020 0.000000 0.000000 0.000002 0.000000 3.623285 -4.180724 11.364402 7.187170 -6.998462 2.925300 -9.908608 0.842368 -7.900593 -0.435891 0.000003 0.000004 -0.000000 0.000000 0.000000 
